<?xml version="1.0" encoding="UTF-8"?>
<svg xmlns="http://www.w3.org/2000/svg" xmlns:xlink="http://www.w3.org/1999/xlink" viewBox="321.9 198.91 722.92 350.70000000000005" preserveAspectRatio="xMidYMid meet" role="img" aria-label="업스테이 UPSTAY">
<path fill-rule="nonzero" fill="rgb(13.725281%, 9.411621%, 8.235168%)" fill-opacity="1" d="M 1035 481.246094 L 334 481.246094 L 334 473.519531 L 1035 473.519531 Z M 1035 481.246094 "/>
<path fill-rule="nonzero" fill="rgb(13.725281%, 9.411621%, 8.235168%)" fill-opacity="1" d="M 359.5 539 L 352.5 539 L 352.5 243 L 359.5 243 Z M 359.5 539 "/>
<path fill-rule="nonzero" fill="rgb(13.725281%, 9.411621%, 8.235168%)" fill-opacity="1" d="M 986 235 C 952.917969 236.449219 919.832031 237.207031 886.75 237.722656 C 870.207031 238.042969 853.667969 238.113281 837.125 238.304688 L 787.5 238.496094 L 737.875 238.3125 C 721.332031 238.117188 704.792969 238.058594 688.25 237.730469 C 655.167969 237.21875 622.082031 236.457031 589 235 C 622.082031 233.542969 655.167969 232.78125 688.25 232.269531 C 704.792969 231.941406 721.332031 231.882812 737.875 231.6875 L 787.5 231.503906 L 837.125 231.695312 C 853.667969 231.886719 870.207031 231.957031 886.75 232.277344 C 919.832031 232.792969 952.917969 233.550781 986 235 "/>
<path fill-rule="nonzero" fill="rgb(13.725281%, 9.411621%, 8.235168%)" fill-opacity="1" d="M 742 209 C 729.039062 215.808594 715.453125 222.191406 701.6875 228.441406 C 687.890625 234.671875 673.855469 240.738281 659.605469 246.65625 C 645.363281 252.578125 630.898438 258.347656 616.195312 263.945312 C 601.464844 269.53125 586.546875 274.980469 571 280 C 583.953125 273.183594 597.535156 266.804688 611.304688 260.554688 C 625.101562 254.320312 639.136719 248.257812 653.394531 242.34375 C 667.644531 236.429688 682.109375 230.660156 696.8125 225.058594 C 711.546875 219.476562 726.460938 214.023438 742 209 "/>
<path fill-rule="nonzero" fill="rgb(13.725281%, 9.411621%, 8.235168%)" fill-opacity="1" d="M 864 209 C 876.960938 215.808594 890.546875 222.191406 904.3125 228.441406 C 918.109375 234.671875 932.144531 240.738281 946.394531 246.65625 C 960.636719 252.578125 975.101562 258.347656 989.804688 263.945312 C 1004.535156 269.53125 1019.453125 274.980469 1035 280 C 1022.046875 273.183594 1008.464844 266.804688 994.695312 260.554688 C 980.898438 254.320312 966.863281 248.257812 952.605469 242.34375 C 938.355469 236.429688 923.890625 230.660156 909.1875 225.058594 C 894.453125 219.476562 879.539062 214.023438 864 209 "/>
<path fill-rule="nonzero" fill="rgb(58.039856%, 14.117432%, 13.33313%)" fill-opacity="1" d="M 525.15625 366.148438 C 523.058594 365.625 521.179688 364.699219 519.519531 363.378906 C 517.859375 362.0625 516.558594 360.28125 515.617188 358.035156 C 514.675781 355.792969 514.207031 352.957031 514.203125 349.519531 L 514.191406 335.460938 L 500.113281 335.46875 C 496.070312 335.472656 492.820312 335.113281 490.367188 334.386719 C 487.910156 333.667969 485.996094 332.644531 484.625 331.324219 C 483.25 330.007812 482.347656 328.523438 481.914062 326.871094 C 481.476562 325.21875 481.261719 323.40625 481.257812 321.421875 C 481.257812 319.839844 481.472656 318.222656 481.90625 316.570312 C 482.335938 314.921875 483.234375 313.433594 484.609375 312.113281 C 485.976562 310.792969 487.886719 309.734375 490.34375 308.941406 C 492.796875 308.144531 496.046875 307.746094 500.089844 307.742188 L 514.167969 307.730469 L 514.160156 296.246094 C 514.152344 289.644531 515.914062 285.121094 519.453125 282.675781 C 522.988281 280.230469 527.0625 279.003906 531.6875 279 C 533.996094 279 536.199219 279.261719 538.292969 279.785156 C 540.386719 280.316406 542.226562 281.238281 543.820312 282.554688 C 545.40625 283.875 546.707031 285.65625 547.722656 287.898438 C 548.730469 290.144531 549.242188 292.917969 549.246094 296.214844 L 549.289062 349.492188 C 549.292969 352.925781 548.789062 355.765625 547.78125 358.007812 C 546.769531 360.257812 545.472656 362.039062 543.886719 363.359375 C 542.296875 364.683594 540.457031 365.609375 538.367188 366.136719 C 536.273438 366.667969 534.070312 366.933594 531.761719 366.933594 C 529.449219 366.9375 527.246094 366.675781 525.15625 366.148438 M 515.351562 425.964844 L 515.34375 415.074219 L 419.828125 415.152344 L 419.835938 426.042969 Z M 432 338.890625 C 433.804688 338.363281 435.175781 337.472656 436.113281 336.214844 C 437.050781 334.960938 437.699219 333.277344 438.058594 331.164062 C 438.414062 329.050781 438.59375 326.34375 438.59375 323.042969 C 438.589844 319.746094 438.40625 317.035156 438.046875 314.921875 C 437.679688 312.8125 437.03125 311.09375 436.089844 309.777344 C 435.148438 308.457031 433.777344 307.535156 431.972656 307.003906 C 430.167969 306.480469 427.820312 306.21875 424.933594 306.21875 C 422.042969 306.222656 419.699219 306.488281 417.894531 307.015625 C 416.089844 307.546875 414.71875 308.476562 413.78125 309.792969 C 412.84375 311.117188 412.195312 312.835938 411.839844 314.945312 C 411.476562 317.058594 411.300781 319.765625 411.304688 323.066406 C 411.304688 326.367188 411.488281 329.074219 411.851562 331.183594 C 412.210938 333.296875 412.863281 334.980469 413.804688 336.234375 C 414.742188 337.488281 416.117188 338.378906 417.921875 338.902344 C 419.726562 339.429688 422.074219 339.691406 424.960938 339.691406 C 427.847656 339.6875 430.195312 339.421875 432 338.890625 M 403.398438 451.410156 C 399.355469 451.410156 396.175781 451.046875 393.867188 450.328125 C 391.554688 449.601562 389.785156 448.613281 388.558594 447.359375 C 387.328125 446.105469 386.570312 444.65625 386.28125 443.003906 C 385.988281 441.351562 385.84375 439.539062 385.84375 437.558594 L 385.804688 391.015625 C 385.796875 384.417969 387.382812 379.894531 390.558594 377.445312 C 393.730469 375.003906 397.628906 373.777344 402.25 373.773438 C 406.582031 373.769531 410.515625 374.925781 414.054688 377.230469 C 417.59375 379.539062 419.511719 383.730469 419.804688 389.800781 L 515.320312 389.722656 C 515.601562 383.519531 517.476562 379.292969 520.941406 377.042969 C 524.40625 374.796875 528.375 373.671875 532.851562 373.667969 C 535.160156 373.664062 537.289062 373.929688 539.242188 374.453125 C 541.191406 374.980469 542.921875 375.90625 544.441406 377.222656 C 545.957031 378.542969 547.148438 380.324219 548.019531 382.566406 C 548.886719 384.8125 549.324219 387.585938 549.324219 390.882812 L 549.367188 437.425781 C 549.367188 439.40625 549.222656 441.21875 548.9375 442.871094 C 548.644531 444.523438 547.890625 445.972656 546.667969 447.230469 C 545.4375 448.484375 543.667969 449.476562 541.363281 450.207031 C 539.050781 450.933594 535.875 451.300781 531.832031 451.304688 Z M 403 363.574219 C 396.859375 362.0625 391.804688 359.621094 387.832031 356.257812 C 383.855469 352.894531 380.894531 348.507812 378.941406 343.09375 C 376.988281 337.683594 376.007812 331.015625 376 323.09375 C 375.992188 315.171875 376.960938 308.472656 378.90625 302.988281 C 380.851562 297.511719 383.804688 293.050781 387.773438 289.613281 C 391.742188 286.179688 396.792969 283.699219 402.929688 282.175781 C 409.0625 280.652344 416.390625 279.886719 424.914062 279.878906 C 433.285156 279.871094 440.578125 280.625 446.789062 282.140625 C 452.996094 283.652344 458.089844 286.125 462.0625 289.554688 C 466.035156 292.984375 469.003906 297.4375 470.957031 302.914062 C 472.910156 308.394531 473.890625 315.09375 473.894531 323.015625 C 473.902344 331.332031 472.933594 338.265625 470.992188 343.8125 C 469.046875 349.359375 466.089844 353.753906 462.121094 356.988281 C 458.152344 360.230469 453.0625 362.511719 446.859375 363.835938 C 440.648438 365.160156 433.355469 365.828125 424.984375 365.832031 C 416.464844 365.839844 409.136719 365.085938 403 363.574219 "/>
<path fill-rule="nonzero" fill="rgb(0%, 0%, 0%)" fill-opacity="1" d="M 670.089844 345.714844 C 666.335938 343.941406 662.738281 341.878906 659.300781 339.523438 C 655.863281 337.175781 652.667969 334.625 649.71875 331.871094 C 646.773438 329.121094 644.136719 326.328125 641.8125 323.484375 C 639.402344 326.234375 636.722656 328.941406 633.773438 331.605469 C 630.824219 334.265625 627.742188 336.730469 624.527344 338.992188 C 621.3125 341.257812 618.003906 343.230469 614.613281 344.917969 C 611.214844 346.601562 607.867188 347.890625 604.5625 348.777344 C 603.308594 349.132812 601.949219 349.375 600.472656 349.507812 C 599 349.640625 597.546875 349.574219 596.121094 349.308594 C 594.597656 348.957031 593.171875 348.289062 591.832031 347.3125 C 590.492188 346.335938 589.507812 344.828125 588.882812 342.785156 C 587.898438 339.589844 588.167969 336.863281 589.6875 334.601562 C 591.207031 332.335938 593.617188 330.585938 596.921875 329.34375 C 600.761719 327.921875 604.695312 326.125 608.714844 323.949219 C 612.734375 321.777344 616.375 319.359375 619.636719 316.695312 C 622.898438 314.035156 625.578125 311.128906 627.675781 307.976562 C 629.777344 304.828125 630.871094 301.566406 630.960938 298.191406 L 630.960938 293.003906 C 630.960938 290.785156 631.269531 288.921875 631.898438 287.410156 C 632.519531 285.902344 633.347656 284.707031 634.375 283.816406 C 635.402344 282.929688 636.589844 282.308594 637.925781 281.953125 C 639.269531 281.597656 640.652344 281.421875 642.082031 281.421875 C 643.507812 281.421875 644.894531 281.597656 646.234375 281.953125 C 647.574219 282.308594 648.757812 282.929688 649.789062 283.816406 C 650.8125 284.707031 651.640625 285.902344 652.265625 287.410156 C 652.890625 288.921875 653.203125 290.785156 653.203125 293.003906 L 653.203125 298.191406 C 653.292969 301.566406 654.253906 304.871094 656.085938 308.109375 C 657.914062 311.351562 660.304688 314.367188 663.253906 317.164062 C 666.203125 319.957031 669.550781 322.441406 673.304688 324.617188 C 677.054688 326.792969 680.941406 328.457031 684.964844 329.609375 C 688.355469 330.585938 690.925781 332.136719 692.667969 334.265625 C 694.410156 336.398438 694.921875 339.105469 694.210938 342.386719 C 693.40625 345.847656 691.347656 348.15625 688.046875 349.308594 C 687.058594 349.664062 686.035156 349.886719 684.964844 349.972656 C 683.890625 350.0625 682.820312 349.972656 681.746094 349.707031 C 677.726562 348.824219 673.839844 347.492188 670.089844 345.714844 M 594.78125 393.371094 C 592.277344 393.371094 590.222656 393.101562 588.617188 392.570312 C 587.007812 392.039062 585.753906 391.351562 584.863281 390.507812 C 583.96875 389.664062 583.367188 388.6875 583.054688 387.582031 C 582.738281 386.46875 582.585938 385.382812 582.585938 384.316406 C 582.585938 382.988281 582.738281 381.765625 583.054688 380.65625 C 583.367188 379.546875 583.96875 378.570312 584.863281 377.730469 C 585.753906 376.882812 587.007812 376.21875 588.617188 375.730469 C 590.222656 375.246094 592.277344 375 594.78125 375 L 687.910156 375 C 690.410156 375 692.464844 375.246094 694.074219 375.730469 C 695.683594 376.21875 696.933594 376.882812 697.828125 377.730469 C 698.71875 378.570312 699.324219 379.546875 699.636719 380.65625 C 699.949219 381.765625 700.105469 382.988281 700.105469 384.316406 C 700.105469 385.382812 699.949219 386.46875 699.636719 387.582031 C 699.324219 388.6875 698.71875 389.664062 697.828125 390.507812 C 696.933594 391.351562 695.683594 392.039062 694.074219 392.570312 C 692.464844 393.101562 690.410156 393.371094 687.910156 393.371094 Z M 594.78125 393.371094 "/>
<path fill-rule="nonzero" fill="rgb(0%, 0%, 0%)" fill-opacity="1" d="M 830.738281 394.433594 C 829.578125 394.082031 828.574219 393.457031 827.722656 392.570312 C 826.875 391.683594 826.183594 390.484375 825.648438 388.976562 C 825.113281 387.464844 824.84375 385.558594 824.84375 383.253906 L 824.84375 292.335938 C 824.84375 287.898438 825.804688 284.859375 827.722656 283.21875 C 829.644531 281.578125 831.855469 280.753906 834.355469 280.753906 C 836.769531 280.753906 838.933594 281.578125 840.855469 283.21875 C 842.777344 284.859375 843.738281 287.898438 843.738281 292.335938 L 843.738281 383.253906 C 843.738281 385.558594 843.46875 387.464844 842.933594 388.976562 C 842.398438 390.484375 841.707031 391.683594 840.855469 392.570312 C 840.007812 393.457031 839.003906 394.082031 837.84375 394.433594 C 836.679688 394.789062 835.515625 394.96875 834.355469 394.96875 C 833.105469 394.96875 831.898438 394.789062 830.738281 394.433594 M 802.597656 394.433594 C 801.4375 394.082031 800.433594 393.457031 799.585938 392.570312 C 798.734375 391.683594 798.042969 390.484375 797.507812 388.976562 C 796.972656 387.464844 796.703125 385.558594 796.703125 383.253906 L 796.703125 346.113281 L 790.269531 346.113281 C 787.769531 346.113281 785.761719 345.871094 784.242188 345.382812 C 782.71875 344.894531 781.539062 344.230469 780.6875 343.386719 C 779.839844 342.542969 779.28125 341.566406 779.015625 340.457031 C 778.746094 339.347656 778.613281 338.128906 778.613281 336.796875 C 778.613281 335.730469 778.746094 334.644531 779.015625 333.535156 C 779.28125 332.425781 779.839844 331.453125 780.6875 330.605469 C 781.539062 329.765625 782.71875 329.074219 784.242188 328.542969 C 785.761719 328.011719 787.769531 327.746094 790.269531 327.746094 L 796.703125 327.746094 L 796.703125 292.335938 C 796.703125 287.898438 797.664062 284.859375 799.585938 283.21875 C 801.503906 281.578125 803.714844 280.753906 806.21875 280.753906 C 808.628906 280.753906 810.792969 281.578125 812.714844 283.21875 C 814.636719 284.859375 815.597656 287.898438 815.597656 292.335938 L 815.597656 383.253906 C 815.597656 385.558594 815.328125 387.464844 814.792969 388.976562 C 814.257812 390.484375 813.5625 391.683594 812.714844 392.570312 C 811.867188 393.457031 810.859375 394.082031 809.703125 394.433594 C 808.539062 394.789062 807.378906 394.96875 806.21875 394.96875 C 804.964844 394.96875 803.761719 394.789062 802.597656 394.433594 M 747.257812 391.640625 C 744.753906 391.640625 742.789062 391.394531 741.359375 390.910156 C 739.929688 390.417969 738.835938 389.753906 738.078125 388.910156 C 737.316406 388.066406 736.847656 387.089844 736.671875 385.984375 C 736.492188 384.871094 736.402344 383.652344 736.402344 382.320312 L 736.402344 291.671875 C 736.402344 290.339844 736.492188 289.121094 736.671875 288.007812 C 736.847656 286.902344 737.316406 285.925781 738.078125 285.082031 C 738.835938 284.238281 739.929688 283.574219 741.359375 283.085938 C 742.789062 282.597656 744.753906 282.351562 747.257812 282.351562 L 769.636719 282.351562 C 772.136719 282.351562 774.191406 282.597656 775.800781 283.085938 C 777.40625 283.574219 778.65625 284.238281 779.550781 285.082031 C 780.441406 285.925781 781.046875 286.902344 781.359375 288.007812 C 781.671875 289.121094 781.828125 290.339844 781.828125 291.671875 C 781.828125 292.734375 781.671875 293.824219 781.359375 294.933594 C 781.046875 296.042969 780.441406 297.019531 779.550781 297.859375 C 778.65625 298.707031 777.40625 299.390625 775.800781 299.921875 C 774.191406 300.457031 772.136719 300.722656 769.636719 300.722656 L 756.769531 300.722656 L 756.769531 327.746094 L 763.738281 327.746094 C 766.238281 327.746094 768.296875 327.992188 769.902344 328.476562 C 771.511719 328.964844 772.761719 329.632812 773.65625 330.472656 C 774.546875 331.316406 775.148438 332.292969 775.464844 333.402344 C 775.777344 334.511719 775.933594 335.730469 775.933594 337.0625 C 775.933594 338.128906 775.777344 339.214844 775.464844 340.324219 C 775.148438 341.433594 774.546875 342.410156 773.65625 343.253906 C 772.761719 344.097656 771.511719 344.785156 769.902344 345.316406 C 768.296875 345.847656 766.238281 346.113281 763.738281 346.113281 L 756.769531 346.113281 L 756.769531 373.269531 L 772.316406 373.269531 C 774.8125 373.269531 776.871094 373.535156 778.476562 374.070312 C 780.085938 374.601562 781.339844 375.289062 782.230469 376.132812 C 783.125 376.972656 783.726562 377.949219 784.039062 379.058594 C 784.351562 380.167969 784.507812 381.257812 784.507812 382.320312 C 784.507812 383.652344 784.351562 384.871094 784.039062 385.984375 C 783.726562 387.089844 783.125 388.066406 782.230469 388.910156 C 781.339844 389.753906 780.085938 390.417969 778.476562 390.910156 C 776.871094 391.394531 774.8125 391.640625 772.316406 391.640625 Z M 747.257812 391.640625 "/>
<path fill-rule="nonzero" fill="rgb(0%, 0%, 0%)" fill-opacity="1" d="M 978.058594 394.433594 C 976.761719 394.082031 975.601562 393.457031 974.574219 392.570312 C 973.546875 391.683594 972.742188 390.484375 972.164062 388.976562 C 971.578125 387.464844 971.292969 385.558594 971.292969 383.253906 L 971.292969 292.335938 C 971.292969 287.898438 972.382812 284.859375 974.574219 283.21875 C 976.761719 281.578125 979.285156 280.753906 982.144531 280.753906 C 983.574219 280.753906 984.9375 280.933594 986.234375 281.289062 C 987.527344 281.644531 988.664062 282.265625 989.648438 283.152344 C 990.632812 284.039062 991.4375 285.238281 992.0625 286.746094 C 992.6875 288.253906 993 290.121094 993 292.335938 L 993 383.253906 C 993 385.558594 992.6875 387.464844 992.0625 388.976562 C 991.4375 390.484375 990.632812 391.683594 989.648438 392.570312 C 988.664062 393.457031 987.527344 394.082031 986.234375 394.433594 C 984.9375 394.789062 983.574219 394.96875 982.144531 394.96875 C 980.714844 394.96875 979.351562 394.789062 978.058594 394.433594 M 918.761719 375.332031 C 919.566406 375.199219 920.304688 374.824219 920.972656 374.203125 C 921.644531 373.582031 922.222656 372.714844 922.714844 371.605469 C 923.207031 370.496094 923.496094 368.921875 923.585938 366.878906 C 923.585938 366.082031 923.609375 364.152344 923.65625 361.089844 C 923.699219 358.027344 923.71875 354.457031 923.71875 350.375 L 923.71875 324.152344 C 923.71875 319.980469 923.699219 316.429688 923.65625 313.5 C 923.609375 310.574219 923.585938 308.710938 923.585938 307.910156 C 923.585938 306.046875 923.363281 304.539062 922.917969 303.382812 C 922.46875 302.234375 921.886719 301.367188 921.175781 300.789062 C 920.457031 300.210938 919.675781 299.835938 918.828125 299.65625 C 917.980469 299.480469 917.199219 299.390625 916.484375 299.390625 C 915.769531 299.390625 915.011719 299.503906 914.207031 299.722656 C 913.402344 299.945312 912.664062 300.367188 911.996094 300.988281 C 911.324219 301.609375 910.742188 302.519531 910.253906 303.71875 C 909.761719 304.914062 909.46875 306.445312 909.382812 308.308594 C 909.382812 309.109375 909.359375 311.019531 909.316406 314.035156 C 909.269531 317.050781 909.226562 320.601562 909.179688 324.683594 C 909.132812 328.765625 909.113281 333.117188 909.113281 337.726562 C 909.113281 342.34375 909.132812 346.691406 909.179688 350.773438 C 909.226562 354.855469 909.246094 358.382812 909.246094 361.355469 C 909.246094 364.332031 909.292969 366.171875 909.382812 366.878906 C 909.382812 368.921875 909.605469 370.496094 910.050781 371.605469 C 910.5 372.714844 911.054688 373.582031 911.726562 374.203125 C 912.398438 374.824219 913.15625 375.199219 914.003906 375.332031 C 914.855469 375.464844 915.679688 375.53125 916.484375 375.53125 C 917.199219 375.53125 917.957031 375.464844 918.761719 375.332031 M 903.417969 391.90625 C 899.890625 390.75 897.007812 389.042969 894.777344 386.78125 C 892.542969 384.519531 890.867188 381.722656 889.75 378.394531 C 888.632812 375.066406 887.941406 371.230469 887.671875 366.878906 C 887.582031 366.082031 887.539062 364.199219 887.539062 361.222656 C 887.539062 358.25 887.519531 354.722656 887.472656 350.640625 C 887.425781 346.558594 887.40625 342.210938 887.40625 337.59375 C 887.40625 332.980469 887.425781 328.632812 887.472656 324.550781 C 887.519531 320.46875 887.539062 316.960938 887.539062 314.035156 C 887.539062 311.105469 887.582031 309.242188 887.671875 308.441406 C 887.941406 304.007812 888.613281 300.101562 889.683594 296.726562 C 890.757812 293.359375 892.410156 290.519531 894.644531 288.210938 C 896.875 285.902344 899.753906 284.148438 903.285156 282.953125 C 906.8125 281.753906 911.210938 281.15625 916.484375 281.15625 C 921.398438 281.15625 925.617188 281.753906 929.148438 282.953125 C 932.675781 284.148438 935.578125 285.902344 937.859375 288.210938 C 940.136719 290.519531 941.878906 293.378906 943.082031 296.796875 C 944.289062 300.210938 945.027344 304.097656 945.296875 308.441406 C 945.296875 309.242188 945.316406 311.128906 945.363281 314.101562 C 945.40625 317.074219 945.429688 320.601562 945.429688 324.683594 C 945.429688 328.765625 945.449219 333.117188 945.496094 337.726562 C 945.539062 342.34375 945.539062 346.691406 945.496094 350.773438 C 945.449219 354.855469 945.40625 358.382812 945.363281 361.355469 C 945.316406 364.332031 945.296875 366.171875 945.296875 366.878906 C 945.113281 375.84375 942.792969 382.542969 938.328125 386.980469 C 933.859375 391.417969 926.578125 393.636719 916.484375 393.636719 C 911.300781 393.636719 906.949219 393.058594 903.417969 391.90625 "/>
<path fill-rule="nonzero" fill="rgb(0%, 0%, 0%)" fill-opacity="1" d="M 590.664062 441.925781 C 590.957031 442.863281 591.429688 443.65625 592.082031 444.300781 C 592.730469 444.949219 593.707031 445.664062 595.011719 446.449219 C 596.109375 447.09375 596.65625 447.945312 596.65625 449 C 596.65625 449.75 596.382812 450.5 595.835938 451.25 C 595.25 452.03125 594.359375 452.425781 593.160156 452.425781 C 592.542969 452.425781 591.882812 452.324219 591.179688 452.117188 C 590.476562 451.914062 589.851562 451.660156 589.304688 451.351562 C 587.347656 450.296875 585.839844 449.128906 584.777344 447.851562 C 583.714844 446.574219 582.984375 445.167969 582.59375 443.636719 C 582.195312 442.105469 582 440.265625 582 438.121094 L 582 424.121094 C 582 421.871094 582.214844 419.957031 582.644531 418.375 C 583.070312 416.789062 583.921875 415.316406 585.1875 413.953125 C 586.457031 412.59375 588.308594 411.367188 590.742188 410.277344 C 591.464844 409.9375 592.234375 409.765625 593.058594 409.765625 C 594.359375 409.765625 595.355469 410.226562 596.039062 411.144531 C 596.519531 411.792969 596.761719 412.492188 596.761719 413.238281 C 596.761719 413.75 596.640625 414.210938 596.402344 414.617188 C 596.160156 415.027344 595.800781 415.351562 595.320312 415.589844 C 593.398438 416.542969 592.070312 417.609375 591.335938 418.78125 C 590.597656 419.957031 590.230469 421.738281 590.230469 424.121094 L 590.230469 438.121094 C 590.230469 439.722656 590.375 440.988281 590.664062 441.925781 "/>
<path fill-rule="nonzero" fill="rgb(0%, 0%, 0%)" fill-opacity="1" d="M 623.300781 415.589844 C 623.300781 414.292969 623.761719 413.339844 624.6875 412.730469 C 625.613281 412.113281 626.660156 411.808594 627.824219 411.808594 C 628.375 411.808594 628.914062 411.886719 629.445312 412.039062 C 629.976562 412.191406 630.449219 412.421875 630.859375 412.730469 C 631.269531 413.035156 631.597656 413.425781 631.835938 413.902344 C 632.074219 414.378906 632.195312 414.941406 632.195312 415.589844 L 632.195312 438.683594 C 632.195312 440.691406 632.855469 442.15625 634.175781 443.074219 C 635.496094 443.996094 637.289062 444.453125 639.550781 444.453125 C 641.746094 444.453125 643.46875 443.996094 644.71875 443.074219 C 645.972656 442.15625 646.597656 440.691406 646.597656 438.683594 L 646.597656 415.589844 C 646.597656 414.292969 647.058594 413.339844 647.984375 412.730469 C 648.910156 412.113281 649.957031 411.808594 651.125 411.808594 C 651.671875 411.808594 652.203125 411.886719 652.71875 412.039062 C 653.230469 412.191406 653.695312 412.421875 654.105469 412.730469 C 654.515625 413.035156 654.851562 413.425781 655.109375 413.902344 C 655.367188 414.378906 655.496094 414.941406 655.496094 415.589844 L 655.496094 438.683594 C 655.496094 440.898438 655.074219 442.769531 654.234375 444.300781 C 653.394531 445.835938 652.253906 447.085938 650.8125 448.058594 C 649.375 449.027344 647.683594 449.726562 645.75 450.152344 C 643.8125 450.578125 641.746094 450.789062 639.550781 450.789062 C 637.289062 450.789062 635.164062 450.578125 633.171875 450.152344 C 631.183594 449.726562 629.460938 449.027344 628.003906 448.058594 C 626.546875 447.085938 625.398438 445.835938 624.558594 444.300781 C 623.71875 442.769531 623.300781 440.898438 623.300781 438.683594 Z M 623.300781 415.589844 "/>
<path fill-rule="nonzero" fill="rgb(0%, 0%, 0%)" fill-opacity="1" d="M 693.425781 443.5625 C 694.472656 444.363281 695.796875 444.761719 697.410156 444.761719 C 698.917969 444.761719 700.160156 444.371094 701.140625 443.585938 C 702.117188 442.804688 702.671875 441.714844 702.8125 440.316406 C 702.914062 439.5 702.964844 438.683594 702.964844 437.867188 C 702.964844 436.945312 702.914062 436.007812 702.8125 435.054688 C 702.707031 433.691406 702.175781 432.664062 701.21875 431.964844 C 700.253906 431.265625 698.988281 430.917969 697.410156 430.917969 C 695.902344 430.917969 694.652344 431.300781 693.65625 432.066406 C 692.660156 432.832031 692.0625 433.878906 691.855469 435.207031 L 691.804688 438.886719 C 691.804688 439.667969 691.820312 440.148438 691.855469 440.316406 C 691.855469 441.679688 692.378906 442.761719 693.425781 443.5625 M 704.429688 425.960938 C 706.539062 426.777344 708.238281 427.988281 709.523438 429.585938 C 710.808594 431.191406 711.484375 433.113281 711.554688 435.363281 L 711.554688 440.214844 C 711.554688 442.328125 710.910156 444.191406 709.625 445.808594 C 708.339844 447.425781 706.617188 448.671875 704.457031 449.539062 C 702.296875 450.40625 699.949219 450.839844 697.410156 450.839844 C 695.386719 450.839844 693.5 450.449219 691.753906 449.667969 L 691.753906 457.535156 C 691.753906 458.964844 691.410156 460.019531 690.726562 460.703125 C 690.039062 461.382812 688.890625 461.722656 687.277344 461.722656 C 685.976562 461.722656 684.957031 461.445312 684.21875 460.878906 C 683.480469 460.320312 683.113281 459.457031 683.113281 458.300781 L 683.113281 428.820312 C 683.113281 427.59375 683.53125 426.660156 684.371094 426.011719 C 685.210938 425.367188 686.234375 425.039062 687.433594 425.039062 C 689.148438 425.039062 690.328125 425.570312 690.980469 426.625 C 693.039062 425.367188 695.183594 424.734375 697.410156 424.734375 C 699.980469 424.734375 702.320312 425.140625 704.429688 425.960938 "/>
<path fill-rule="nonzero" fill="rgb(0%, 0%, 0%)" fill-opacity="1" d="M 789.960938 444.199219 C 790.867188 444.03125 791.648438 443.757812 792.300781 443.382812 C 792.949219 443.007812 793.464844 442.53125 793.84375 441.953125 C 794.21875 441.375 794.40625 440.691406 794.40625 439.90625 C 794.40625 439.023438 794.195312 438.257812 793.765625 437.609375 C 793.335938 436.960938 792.761719 436.390625 792.042969 435.898438 C 791.320312 435.402344 790.5 434.96875 789.574219 434.597656 C 788.648438 434.222656 787.6875 433.863281 786.695312 433.519531 C 785.148438 432.976562 783.5625 432.390625 781.9375 431.761719 C 780.308594 431.128906 778.832031 430.378906 777.515625 429.511719 C 776.191406 428.644531 775.113281 427.613281 774.273438 426.421875 C 773.433594 425.226562 773.015625 423.796875 773.015625 422.128906 C 773.015625 420.085938 773.511719 418.390625 774.503906 417.046875 C 775.5 415.699219 776.769531 414.628906 778.3125 413.828125 C 779.855469 413.027344 781.585938 412.457031 783.507812 412.113281 C 785.425781 411.773438 787.3125 411.605469 789.160156 411.605469 C 790.089844 411.605469 791.117188 411.648438 792.25 411.730469 C 793.378906 411.816406 794.484375 411.960938 795.566406 412.167969 C 796.644531 412.371094 797.65625 412.625 798.601562 412.933594 C 799.542969 413.238281 800.273438 413.613281 800.785156 414.054688 C 801.195312 414.398438 801.480469 414.796875 801.636719 415.257812 C 801.789062 415.71875 801.867188 416.132812 801.867188 416.507812 C 801.832031 417.328125 801.625 417.964844 801.25 418.425781 C 800.871094 418.886719 800.417969 419.199219 799.886719 419.371094 C 799.355469 419.542969 798.773438 419.609375 798.136719 419.574219 C 797.503906 419.542969 796.929688 419.421875 796.414062 419.21875 C 795.144531 418.808594 793.945312 418.46875 792.8125 418.195312 C 791.683594 417.921875 790.464844 417.785156 789.160156 417.785156 C 787.070312 417.785156 785.347656 418.085938 783.992188 418.679688 C 782.640625 419.277344 781.960938 420.257812 781.960938 421.617188 C 781.960938 422.402344 782.183594 423.082031 782.632812 423.664062 C 783.074219 424.242188 783.667969 424.761719 784.402344 425.21875 C 785.144531 425.679688 786 426.097656 786.976562 426.472656 C 787.953125 426.847656 788.972656 427.203125 790.035156 427.542969 L 792.867188 428.515625 C 794.167969 428.992188 795.445312 429.539062 796.695312 430.148438 C 797.949219 430.761719 799.0625 431.496094 800.039062 432.347656 C 801.019531 433.199219 801.804688 434.1875 802.40625 435.308594 C 803.003906 436.433594 803.304688 437.746094 803.304688 439.246094 C 803.304688 441.21875 802.910156 442.9375 802.121094 444.402344 C 801.335938 445.871094 800.230469 447.078125 798.804688 448.03125 C 797.382812 448.984375 795.695312 449.691406 793.738281 450.152344 C 791.785156 450.609375 789.644531 450.839844 787.3125 450.839844 C 783.882812 450.839844 780.984375 450.433594 778.617188 449.613281 C 776.253906 448.796875 774.523438 447.84375 773.425781 446.753906 C 773.082031 446.480469 772.824219 446.160156 772.652344 445.785156 C 772.480469 445.410156 772.378906 445.035156 772.34375 444.660156 C 772.273438 444.046875 772.34375 443.503906 772.550781 443.023438 C 772.757812 442.546875 773.039062 442.15625 773.398438 441.851562 C 773.761719 441.542969 774.160156 441.3125 774.609375 441.160156 C 775.054688 441.007812 775.515625 440.929688 775.996094 440.929688 C 776.511719 440.929688 777.03125 441.015625 777.566406 441.183594 C 778.097656 441.355469 778.550781 441.59375 778.929688 441.898438 C 779.476562 442.277344 780.007812 442.617188 780.523438 442.921875 C 781.035156 443.230469 781.601562 443.496094 782.21875 443.714844 C 782.835938 443.9375 783.539062 444.113281 784.328125 444.25 C 785.117188 444.386719 786.023438 444.457031 787.054688 444.457031 C 788.082031 444.457031 789.050781 444.371094 789.960938 444.199219 "/>
<path fill-rule="nonzero" fill="rgb(0%, 0%, 0%)" fill-opacity="1" d="M 850.109375 427.953125 C 850.109375 429.929688 848.925781 430.917969 846.558594 430.917969 L 841.878906 430.917969 L 841.878906 446.652344 C 841.878906 447.910156 841.449219 448.875 840.59375 449.539062 C 839.734375 450.203125 838.691406 450.535156 837.457031 450.535156 C 836.222656 450.535156 835.183594 450.203125 834.34375 449.539062 C 833.503906 448.875 833.085938 447.910156 833.085938 446.652344 L 833.085938 430.917969 L 827.941406 430.917969 C 826.671875 430.917969 825.761719 430.628906 825.214844 430.046875 C 824.667969 429.46875 824.390625 428.738281 824.390625 427.851562 C 824.390625 425.773438 825.574219 424.734375 827.941406 424.734375 L 833.085938 424.734375 L 833.085938 416.203125 C 833.085938 414.941406 833.503906 413.988281 834.34375 413.339844 C 835.183594 412.695312 836.222656 412.371094 837.457031 412.371094 C 838.691406 412.371094 839.734375 412.695312 840.59375 413.339844 C 841.449219 413.988281 841.878906 414.941406 841.878906 416.203125 L 841.878906 424.734375 L 846.558594 424.734375 C 848.925781 424.734375 850.109375 425.808594 850.109375 427.953125 "/>
<path fill-rule="nonzero" fill="rgb(0%, 0%, 0%)" fill-opacity="1" d="M 880.96875 444.457031 C 881.582031 444.898438 882.441406 445.121094 883.539062 445.121094 C 885.21875 445.121094 886.710938 444.726562 888.011719 443.945312 C 889.316406 443.160156 889.96875 442.226562 889.96875 441.136719 L 889.96875 440.113281 L 885.441406 440.113281 C 883.382812 440.113281 881.96875 440.316406 881.199219 440.726562 C 880.425781 441.136719 880.039062 441.78125 880.039062 442.667969 C 880.039062 443.417969 880.351562 444.015625 880.96875 444.457031 M 882.714844 450.839844 C 878.875 450.839844 876.054688 450.136719 874.253906 448.722656 C 872.453125 447.308594 871.519531 445.5625 871.453125 443.484375 C 871.246094 440.519531 872.351562 438.300781 874.769531 436.816406 C 877.1875 435.335938 880.792969 434.597656 885.59375 434.597656 L 889.914062 434.597656 C 889.847656 433.503906 889.273438 432.558594 888.195312 431.761719 C 887.113281 430.960938 885.648438 430.558594 883.796875 430.558594 C 881.738281 430.558594 879.972656 430.863281 878.496094 431.476562 C 877.640625 431.820312 876.886719 431.988281 876.234375 431.988281 C 875.105469 431.988281 874.296875 431.476562 873.820312 430.457031 C 873.613281 429.945312 873.511719 429.46875 873.511719 429.027344 C 873.511719 427.867188 874.109375 427 875.308594 426.421875 C 876.371094 425.875 877.699219 425.441406 879.292969 425.117188 C 880.890625 424.792969 882.457031 424.632812 884 424.632812 C 887.257812 424.632812 889.984375 425.117188 892.179688 426.089844 C 894.371094 427.058594 895.992188 428.335938 897.039062 429.921875 C 898.082031 431.503906 898.609375 433.25 898.609375 435.15625 L 898.609375 447.058594 C 898.609375 448.152344 898.230469 448.992188 897.476562 449.589844 C 896.722656 450.183594 895.691406 450.484375 894.390625 450.484375 C 892.605469 450.484375 891.371094 450.042969 890.6875 449.15625 C 888.800781 450.277344 886.144531 450.839844 882.714844 450.839844 "/>
<path fill-rule="nonzero" fill="rgb(0%, 0%, 0%)" fill-opacity="1" d="M 934.96875 461.980469 C 934.351562 461.980469 933.75 461.859375 933.167969 461.621094 C 931.554688 460.941406 930.75 459.917969 930.75 458.554688 C 930.75 458.078125 930.886719 457.515625 931.164062 456.871094 L 934.558594 449.71875 L 924.167969 429.640625 C 923.894531 429.09375 923.753906 428.566406 923.753906 428.054688 C 923.753906 427.410156 923.980469 426.796875 924.425781 426.214844 C 924.871094 425.636719 925.523438 425.195312 926.378906 424.886719 C 926.996094 424.648438 927.628906 424.53125 928.28125 424.53125 C 929.140625 424.53125 929.882812 424.742188 930.519531 425.167969 C 931.152344 425.59375 931.644531 426.214844 931.984375 427.035156 L 935.894531 434.851562 L 939.132812 441.238281 L 946.230469 426.574219 C 946.46875 426.097656 946.859375 425.671875 947.390625 425.296875 C 947.917969 424.921875 948.613281 424.734375 949.472656 424.734375 C 950.191406 424.734375 950.84375 424.835938 951.425781 425.042969 C 952.214844 425.3125 952.867188 425.742188 953.378906 426.320312 C 953.894531 426.898438 954.152344 427.542969 954.152344 428.257812 C 954.152344 428.703125 954.050781 429.128906 953.84375 429.539062 L 938.207031 459.832031 C 937.523438 461.261719 936.441406 461.980469 934.96875 461.980469 "/>
<path fill-rule="nonzero" fill="rgb(0%, 0%, 0%)" fill-opacity="1" d="M 982.875 418.78125 C 982.140625 417.605469 980.808594 416.542969 978.890625 415.589844 C 978.410156 415.351562 978.050781 415.027344 977.808594 414.617188 C 977.570312 414.210938 977.449219 413.75 977.449219 413.238281 C 977.449219 412.492188 977.6875 411.792969 978.171875 411.144531 C 978.855469 410.222656 979.851562 409.765625 981.152344 409.765625 C 981.976562 409.765625 982.746094 409.9375 983.46875 410.277344 C 985.902344 411.367188 987.753906 412.59375 989.023438 413.953125 C 990.289062 415.316406 991.140625 416.789062 991.566406 418.375 C 991.996094 419.957031 992.210938 421.875 992.210938 424.121094 L 992.210938 438.121094 C 992.210938 440.265625 992.011719 442.105469 991.617188 443.636719 C 991.226562 445.171875 990.496094 446.574219 989.433594 447.851562 C 988.371094 449.128906 986.859375 450.296875 984.90625 451.351562 C 984.359375 451.660156 983.730469 451.914062 983.03125 452.117188 C 982.328125 452.324219 981.667969 452.425781 981.050781 452.425781 C 979.851562 452.425781 978.957031 452.03125 978.375 451.25 C 977.824219 450.5 977.554688 449.753906 977.554688 449.003906 C 977.554688 447.945312 978.101562 447.09375 979.199219 446.445312 C 980.503906 445.664062 981.476562 444.949219 982.128906 444.300781 C 982.78125 443.65625 983.253906 442.863281 983.546875 441.925781 C 983.835938 440.988281 983.980469 439.722656 983.980469 438.121094 L 983.980469 424.121094 C 983.980469 421.738281 983.613281 419.957031 982.875 418.78125 "/>
<path fill-rule="nonzero" fill="rgb(13.725281%, 9.411621%, 8.235168%)" fill-opacity="1" d="M 332 264.765625 C 333.453125 262.214844 335.089844 259.84375 336.765625 257.507812 C 338.449219 255.183594 340.210938 252.9375 342.019531 250.734375 C 343.824219 248.53125 345.703125 246.398438 347.605469 244.292969 L 350.503906 241.175781 L 353.472656 238.125 L 355.996094 235.53125 L 358.488281 238.171875 C 360.398438 240.199219 362.285156 242.246094 364.113281 244.347656 C 365.941406 246.449219 367.730469 248.589844 369.460938 250.785156 C 371.1875 252.984375 372.871094 255.226562 374.476562 257.542969 C 376.070312 259.867188 377.625 262.230469 379 264.765625 C 376.535156 263.269531 374.25 261.601562 372.003906 259.898438 C 369.769531 258.183594 367.609375 256.394531 365.496094 254.566406 C 363.386719 252.730469 361.332031 250.84375 359.324219 248.914062 C 357.3125 246.984375 355.355469 245.003906 353.425781 243 L 358.441406 243.050781 L 355.417969 246.042969 L 352.328125 248.972656 C 350.238281 250.890625 348.125 252.792969 345.9375 254.617188 C 343.75 256.445312 341.523438 258.226562 339.214844 259.933594 C 336.894531 261.628906 334.539062 263.285156 332 264.765625 "/>
<path fill-rule="nonzero" fill="rgb(0%, 0%, 0%)" fill-opacity="1" d="M 408.519531 539.222656 L 404.378906 539.222656 L 404.378906 495 L 408.519531 495 Z M 380.386719 524.308594 C 383.679688 524.308594 386.925781 524.183594 390.125 523.933594 C 393.324219 523.683594 396.492188 523.304688 399.628906 522.804688 L 400.050781 526.378906 C 393.652344 527.414062 385.734375 527.933594 376.292969 527.933594 L 376.292969 511.136719 L 391.441406 511.136719 L 391.441406 502.667969 L 376.292969 502.667969 L 376.292969 499 L 395.582031 499 L 395.582031 514.808594 L 380.386719 514.808594 Z M 380.386719 524.308594 "/>
<path fill-rule="nonzero" fill="rgb(0%, 0%, 0%)" fill-opacity="1" d="M 447.425781 502.433594 L 427.429688 502.433594 L 427.429688 516.265625 L 447.425781 516.265625 Z M 423.339844 519.886719 L 423.339844 498.765625 L 451.566406 498.765625 L 451.566406 519.886719 L 439.523438 519.886719 L 439.523438 529.8125 L 458.011719 529.8125 L 458.011719 533.484375 L 416.894531 533.484375 L 416.894531 529.8125 L 435.382812 529.8125 L 435.382812 519.886719 Z M 423.339844 519.886719 "/>
<path fill-rule="nonzero" fill="rgb(0%, 0%, 0%)" fill-opacity="1" d="M 499.550781 516.171875 L 495.554688 516.171875 L 495.554688 495 L 499.550781 495 Z M 479.558594 507.1875 L 479.558594 503.75 L 487.507812 503.75 L 487.507812 495.472656 L 491.273438 495.472656 L 491.273438 515.699219 L 487.507812 515.699219 L 487.507812 507.1875 Z M 499.550781 530.332031 L 475.183594 530.332031 L 475.183594 534.847656 L 500.257812 534.847656 L 500.257812 538.28125 L 471.089844 538.28125 L 471.089844 526.894531 L 495.410156 526.894531 L 495.410156 522.898438 L 471.089844 522.898438 L 471.089844 519.464844 L 499.550781 519.464844 Z M 468.972656 511.703125 C 474.867188 511.703125 479.933594 511.277344 484.167969 510.433594 C 484.230469 511.027344 484.300781 511.613281 484.378906 512.195312 C 484.457031 512.777344 484.527344 513.347656 484.589844 513.914062 C 480.324219 514.789062 473.785156 515.230469 464.972656 515.230469 L 464.972656 496.882812 L 481.769531 496.882812 L 481.769531 500.410156 L 468.972656 500.410156 Z M 468.972656 511.703125 "/>
<path fill-rule="nonzero" fill="rgb(0%, 0%, 0%)" fill-opacity="1" d="M 543.066406 520.074219 L 538.929688 520.074219 L 538.929688 495 L 543.066406 495 Z M 538.457031 529.671875 C 538.457031 528.699219 538.253906 527.820312 537.847656 527.039062 C 537.4375 526.253906 536.890625 525.578125 536.199219 525.015625 C 535.476562 524.449219 534.640625 524.011719 533.683594 523.699219 C 532.726562 523.386719 531.699219 523.226562 530.601562 523.226562 C 529.535156 523.226562 528.523438 523.378906 527.566406 523.675781 C 526.609375 523.972656 525.785156 524.402344 525.097656 524.96875 C 524.375 525.53125 523.8125 526.214844 523.402344 527.015625 C 522.996094 527.8125 522.792969 528.699219 522.792969 529.671875 C 522.792969 530.644531 523.003906 531.523438 523.425781 532.308594 C 523.851562 533.09375 524.421875 533.765625 525.144531 534.328125 C 525.832031 534.863281 526.65625 535.277344 527.613281 535.578125 C 528.570312 535.875 529.566406 536.023438 530.601562 536.023438 C 531.667969 536.023438 532.679688 535.875 533.636719 535.578125 C 534.59375 535.277344 535.429688 534.863281 536.152344 534.328125 C 536.875 533.765625 537.4375 533.09375 537.847656 532.308594 C 538.253906 531.523438 538.457031 530.644531 538.457031 529.671875 M 542.597656 529.671875 C 542.597656 531.179688 542.285156 532.550781 541.65625 533.789062 C 541.027344 535.027344 540.183594 536.085938 539.117188 536.964844 C 538.019531 537.84375 536.742188 538.519531 535.28125 538.988281 C 533.824219 539.460938 532.265625 539.691406 530.601562 539.691406 C 528.9375 539.691406 527.386719 539.460938 525.945312 538.988281 C 524.5 538.519531 523.246094 537.859375 522.179688 537.011719 C 521.113281 536.132812 520.265625 535.074219 519.640625 533.835938 C 519.011719 532.597656 518.699219 531.210938 518.699219 529.671875 C 518.699219 528.105469 519.011719 526.703125 519.640625 525.460938 C 520.265625 524.222656 521.128906 523.164062 522.226562 522.285156 C 523.292969 521.410156 524.546875 520.742188 525.992188 520.285156 C 527.433594 519.832031 528.96875 519.605469 530.601562 519.605469 C 532.230469 519.605469 533.777344 519.839844 535.234375 520.3125 C 536.695312 520.78125 537.972656 521.4375 539.070312 522.285156 C 540.167969 523.164062 541.027344 524.230469 541.65625 525.484375 C 542.285156 526.742188 542.597656 528.136719 542.597656 529.671875 M 514.464844 514.007812 C 521.332031 514.007812 527.902344 513.535156 534.175781 512.59375 C 534.238281 513.191406 534.308594 513.78125 534.390625 514.359375 C 534.46875 514.941406 534.535156 515.511719 534.601562 516.074219 C 531.402344 516.578125 527.792969 516.945312 523.78125 517.183594 C 519.765625 517.417969 515.296875 517.535156 510.371094 517.535156 L 510.371094 505.210938 L 525.992188 505.210938 L 525.992188 500.410156 L 510.371094 500.410156 L 510.371094 496.882812 L 530.132812 496.882812 L 530.132812 508.738281 L 514.464844 508.738281 Z M 514.464844 514.007812 "/>
<path fill-rule="nonzero" fill="rgb(0%, 0%, 0%)" fill-opacity="1" d="M 574.308594 538.28125 L 570.355469 538.28125 L 570.355469 496.410156 L 574.308594 496.410156 Z M 574.308594 538.28125 "/>
<path fill-rule="nonzero" fill="rgb(0%, 0%, 0%)" fill-opacity="1" d="M 621.023438 506.289062 L 630.242188 506.289062 L 630.242188 495 L 634.382812 495 L 634.382812 523.699219 L 630.242188 523.699219 L 630.242188 509.960938 L 621.023438 509.960938 Z M 634.945312 538.046875 L 607.425781 538.046875 L 607.425781 522.992188 L 611.566406 522.992188 L 611.566406 534.378906 L 634.945312 534.378906 Z M 602.484375 519.558594 C 602.046875 519.058594 601.617188 518.546875 601.191406 518.027344 C 600.769531 517.511719 600.335938 517.003906 599.898438 516.5 C 602.09375 515.902344 604.171875 515.074219 606.132812 514.007812 C 608.089844 512.941406 609.824219 511.703125 611.332031 510.289062 C 612.835938 508.910156 614.074219 507.390625 615.046875 505.726562 C 616.019531 504.066406 616.628906 502.339844 616.882812 500.550781 L 601.453125 500.550781 L 601.453125 496.882812 L 621.773438 496.882812 C 621.773438 499.703125 621.289062 502.332031 620.316406 504.761719 C 619.34375 507.191406 618.011719 509.382812 616.316406 511.324219 C 614.589844 513.269531 612.546875 514.941406 610.175781 516.335938 C 607.808594 517.730469 605.246094 518.804688 602.484375 519.558594 "/>
<path fill-rule="nonzero" fill="rgb(0%, 0%, 0%)" fill-opacity="1" d="M 672.582031 499.941406 L 652.589844 499.941406 L 652.589844 506.761719 L 672.582031 506.761719 Z M 648.496094 496.410156 L 676.722656 496.410156 L 676.722656 510.289062 L 648.496094 510.289062 Z M 676.488281 531.601562 L 652.824219 531.601562 L 652.824219 535.460938 L 677.429688 535.460938 L 677.429688 538.753906 L 648.730469 538.753906 L 648.730469 528.308594 L 672.347656 528.308594 L 672.347656 524.640625 L 648.730469 524.640625 L 648.730469 521.347656 L 660.539062 521.347656 L 660.539062 517.535156 L 641.675781 517.535156 L 641.675781 513.863281 L 683.546875 513.863281 L 683.546875 517.535156 L 664.679688 517.535156 L 664.679688 521.347656 L 676.488281 521.347656 Z M 676.488281 531.601562 "/>
<path fill-rule="nonzero" fill="rgb(0%, 0%, 0%)" fill-opacity="1" d="M 721.652344 510.761719 L 721.652344 525.578125 L 717.511719 525.578125 L 717.511719 495 L 721.652344 495 L 721.652344 507.136719 L 728.710938 507.136719 L 728.710938 510.761719 Z M 722.121094 538.046875 L 693.894531 538.046875 L 693.894531 524.78125 L 697.988281 524.78125 L 697.988281 534.421875 L 722.121094 534.421875 Z M 711.628906 497.117188 C 711.628906 500.066406 711.519531 502.765625 711.300781 505.207031 C 711.082031 507.65625 710.753906 509.898438 710.3125 511.9375 L 706.457031 511.5625 C 706.832031 509.554688 707.121094 507.648438 707.328125 505.84375 C 707.53125 504.039062 707.632812 502.308594 707.632812 500.648438 L 690.128906 500.648438 L 690.128906 497.117188 Z M 687.542969 519.886719 L 687.542969 516.359375 L 696.578125 516.359375 L 696.578125 507.28125 L 700.480469 507.28125 L 700.480469 516.359375 C 705.375 516.359375 710.203125 515.859375 714.972656 514.855469 L 715.347656 518.335938 C 710.578125 519.371094 704.839844 519.886719 698.128906 519.886719 Z M 687.542969 519.886719 "/>
<path fill-rule="nonzero" fill="rgb(0%, 0%, 0%)" fill-opacity="1" d="M 767.757812 539.222656 L 763.617188 539.222656 L 763.617188 495 L 767.757812 495 Z M 739.621094 524.308594 C 742.914062 524.308594 746.160156 524.183594 749.359375 523.933594 C 752.5625 523.683594 755.726562 523.304688 758.863281 522.804688 L 759.289062 526.378906 C 752.890625 527.414062 744.96875 527.933594 735.53125 527.933594 L 735.53125 511.136719 L 750.679688 511.136719 L 750.679688 502.667969 L 735.53125 502.667969 L 735.53125 499 L 754.816406 499 L 754.816406 514.808594 L 739.621094 514.808594 Z M 739.621094 524.308594 "/>
<path fill-rule="nonzero" fill="rgb(0%, 0%, 0%)" fill-opacity="1" d="M 799.464844 538.28125 L 795.511719 538.28125 L 795.511719 496.410156 L 799.464844 496.410156 Z M 799.464844 538.28125 "/>
<path fill-rule="nonzero" fill="rgb(0%, 0%, 0%)" fill-opacity="1" d="M 859.304688 518.289062 L 855.164062 518.289062 L 855.164062 495 L 859.304688 495 Z M 855.164062 525.015625 L 836.347656 525.015625 L 836.347656 534.613281 L 855.164062 534.613281 Z M 832.253906 521.347656 L 859.304688 521.347656 L 859.304688 538.28125 L 832.253906 538.28125 Z M 843.261719 506.527344 C 843.261719 505.554688 843.089844 504.660156 842.746094 503.84375 C 842.398438 503.027344 841.929688 502.324219 841.335938 501.726562 C 840.738281 501.132812 840.03125 500.667969 839.21875 500.339844 C 838.402344 500.011719 837.523438 499.847656 836.582031 499.847656 C 835.640625 499.847656 834.761719 500.003906 833.945312 500.316406 C 833.132812 500.628906 832.410156 501.085938 831.785156 501.679688 C 831.15625 502.277344 830.660156 502.980469 830.300781 503.796875 C 829.941406 504.613281 829.761719 505.523438 829.761719 506.527344 C 829.761719 507.53125 829.941406 508.449219 830.300781 509.277344 C 830.660156 510.109375 831.15625 510.808594 831.785156 511.371094 C 832.378906 511.96875 833.09375 512.429688 833.925781 512.761719 C 834.753906 513.089844 835.640625 513.253906 836.582031 513.253906 C 837.523438 513.253906 838.394531 513.089844 839.191406 512.761719 C 839.992188 512.429688 840.707031 511.96875 841.335938 511.371094 C 841.929688 510.777344 842.398438 510.070312 842.746094 509.253906 C 843.089844 508.4375 843.261719 507.53125 843.261719 506.527344 M 847.402344 506.527344 C 847.402344 508.03125 847.121094 509.421875 846.554688 510.6875 C 845.992188 511.960938 845.222656 513.050781 844.25 513.960938 C 843.277344 514.898438 842.132812 515.621094 840.816406 516.125 C 839.5 516.625 838.070312 516.878906 836.535156 516.878906 C 834.996094 516.878906 833.5625 516.625 832.230469 516.125 C 830.898438 515.621094 829.746094 514.914062 828.773438 514.007812 C 827.800781 513.097656 827.039062 512.007812 826.492188 510.738281 C 825.941406 509.46875 825.667969 508.0625 825.667969 506.527344 C 825.667969 505.019531 825.941406 503.632812 826.492188 502.363281 C 827.039062 501.09375 827.800781 500.003906 828.773438 499.09375 C 829.746094 498.183594 830.898438 497.472656 832.230469 496.953125 C 833.5625 496.433594 834.996094 496.175781 836.535156 496.175781 C 838.039062 496.175781 839.460938 496.433594 840.792969 496.953125 C 842.125 497.472656 843.277344 498.183594 844.25 499.09375 C 845.222656 500.035156 845.992188 501.132812 846.554688 502.386719 C 847.121094 503.640625 847.402344 505.019531 847.402344 506.527344 "/>
<path fill-rule="nonzero" fill="rgb(0%, 0%, 0%)" fill-opacity="1" d="M 895.953125 537.8125 L 891.953125 537.8125 L 891.953125 495.46875 L 895.953125 495.46875 L 895.953125 511.703125 L 901.175781 511.703125 L 901.175781 495 L 905.175781 495 L 905.175781 539.222656 L 901.175781 539.222656 L 901.175781 515.324219 L 895.953125 515.324219 Z M 874.59375 522.664062 C 879.988281 522.664062 884.972656 522.238281 889.554688 521.394531 C 889.617188 521.988281 889.6875 522.585938 889.765625 523.179688 C 889.84375 523.777344 889.914062 524.375 889.976562 524.96875 C 885.398438 525.847656 878.9375 526.285156 870.597656 526.285156 L 870.597656 499 L 887.625 499 L 887.625 502.667969 L 874.59375 502.667969 Z M 874.59375 522.664062 "/>
<path fill-rule="nonzero" fill="rgb(0%, 0%, 0%)" fill-opacity="1" d="M 946.808594 510.761719 L 946.808594 525.578125 L 942.667969 525.578125 L 942.667969 495 L 946.808594 495 L 946.808594 507.136719 L 953.867188 507.136719 L 953.867188 510.761719 Z M 947.28125 538.046875 L 919.050781 538.046875 L 919.050781 524.78125 L 923.144531 524.78125 L 923.144531 534.421875 L 947.28125 534.421875 Z M 936.789062 497.117188 C 936.789062 500.066406 936.675781 502.765625 936.457031 505.207031 C 936.238281 507.65625 935.910156 509.898438 935.46875 511.9375 L 931.613281 511.5625 C 931.988281 509.554688 932.28125 507.648438 932.484375 505.84375 C 932.6875 504.039062 932.789062 502.308594 932.789062 500.648438 L 915.289062 500.648438 L 915.289062 497.117188 Z M 912.703125 519.886719 L 912.703125 516.359375 L 921.734375 516.359375 L 921.734375 507.28125 L 925.636719 507.28125 L 925.636719 516.359375 C 930.53125 516.359375 935.359375 515.859375 940.128906 514.855469 L 940.503906 518.335938 C 935.738281 519.371094 929.996094 519.886719 923.285156 519.886719 Z M 912.703125 519.886719 "/>
<path fill-rule="nonzero" fill="rgb(0%, 0%, 0%)" fill-opacity="1" d="M 992.914062 539.222656 L 988.773438 539.222656 L 988.773438 495 L 992.914062 495 Z M 964.78125 524.308594 C 968.074219 524.308594 971.320312 524.183594 974.519531 523.933594 C 977.71875 523.683594 980.886719 523.304688 984.023438 522.804688 L 984.445312 526.378906 C 978.046875 527.414062 970.128906 527.933594 960.6875 527.933594 L 960.6875 511.136719 L 975.835938 511.136719 L 975.835938 502.667969 L 960.6875 502.667969 L 960.6875 499 L 979.976562 499 L 979.976562 514.808594 L 964.78125 514.808594 Z M 964.78125 524.308594 "/>
<path fill-rule="nonzero" fill="rgb(13.725281%, 9.411621%, 8.235168%)" fill-opacity="1" d="M 1017 304.808594 L 1013.5 250 L 1010 304.808594 L 1010 539 L 1017 539 Z M 1017 304.808594 "/>
</svg>
